<svg xmlns="http://www.w3.org/2000/svg" width="180" height="105.1"><style>.st0{fill:#fff}</style><path class="st0" d="M140.1 51.4c1 0 1.4-.4 1.4-1.4V16.4c0-.8-.4-1.4-1.4-1.4h-4.2c-1 0-1.4.4-1.4 1.4V50c0 1 .4 1.4 1.4 1.4h4.2zM166.4 52.2c3 0 5.9-.4 8.1-1.4.6-.2 1-.4 1.2-.8.2-.2.2-.8.2-1.4v-2c0-1-.4-1.4-1-1.4-.2 0-.6 0-1 .2-2.2.6-4.4 1-6.5 1-3.8 0-6.7-1-8.5-3-1.8-2-2.6-5.3-2.6-9.5v-1c.2-4.4 1-7.7 2.8-9.7 1.8-2 4.7-3 8.7-3 2 0 4 .2 5.9.8.6.2.8.2 1.2.2.6 0 1-.4 1-1.4v-2c0-.6-.2-1.2-.4-1.4-.2-.2-.6-.6-1-.8-2.6-.6-5.3-1.2-7.7-1.2-5.7 0-9.9 1.6-13.1 5.1-3 3.2-4.7 8.1-4.7 14.2s1.4 10.7 4.4 14c3 2.9 7.3 4.5 13 4.5zM133.4 4.2c0 1.2.4 2.4 1.2 3 .8.8 1.8 1.2 3.2 1.2s2.4-.4 3.2-1.2c.8-.8 1.2-1.8 1.2-3s-.2-2.4-1-3c-.8-.8-2-1.2-3.4-1.2s-2.4.4-3.2 1.2c-.8.8-1.2 1.8-1.2 3zM128.3 41.5c0-2.4-.6-4.2-1.8-5.9-1.2-1.4-3.2-2.8-6.1-3.8l-5.7-2.2c-2.2-.8-3.8-1.6-4.4-2.4-.8-.8-1.2-1.6-1.2-3 0-3 2.2-4.7 6.9-4.7 2.6 0 5.3.4 7.7 1.2.8.2 1.4.4 1.6.4.6 0 1-.4 1-1.2v-2c0-.6-.2-1-.4-1.4-.2-.4-.6-.6-1.2-.8-3-1-6.1-1.6-9.1-1.6-3.8 0-7.1 1-9.5 2.8-2.4 1.8-3.6 4.4-3.6 7.5 0 4.7 2.6 8.1 7.9 10.1l6.1 2.2c2 .8 3.2 1.4 4 2.2.8.8 1 1.6 1 2.8 0 1.6-.6 3-1.8 3.8-1.2.8-3 1.4-5.3 1.4-3.4 0-6.7-.4-9.9-1.4-.8-.2-1.4-.4-1.8-.4-.6 0-.8.4-.8 1.2v2c0 .6.2 1 .4 1.4.2.2.6.6 1.2.8 3.2 1.4 6.9 2 10.9 2 4.2 0 7.5-1 10.1-3 2.6-2 3.8-4.6 3.8-8zM69.9 15h-4.2c-1 0-1.4.4-1.4 1.4v25.1c0 3.4.8 6.3 2.6 8.1 1.8 1.8 4.4 2.8 7.9 2.8 4.7 0 9.3-1.6 13.8-4.9l.4 2.4c0 .6.2.8.6 1 .2.2.6.2 1.2.2h3c1 0 1.4-.4 1.4-1.4V16.4c0-1-.4-1.4-1.4-1.4h-4.2c-1.2 0-1.6.6-1.6 1.4v26.9c-3.4 2.2-6.9 3.4-10.3 3.4-2.2 0-3.8-.6-4.9-1.8-1-1.2-1.4-3-1.4-5.7V16.4c-.1-1-.5-1.4-1.5-1.4zM3 51.6h4.2c1 0 1.4-.4 1.4-1.4V22.8c3.4-2 6.9-3.2 10.5-3.2 2 0 3.4.6 4.2 1.8.8 1.2 1.4 2.8 1.4 5.3V50c0 1 .4 1.4 1.4 1.4h4.2c1 0 1.4-.4 1.4-1.4V23.9v-1c3.6-2.2 7.1-3.2 10.5-3.2 2 0 3.4.6 4.2 1.8.8 1.2 1.4 2.8 1.4 5.3v23.3c0 1 .4 1.4 1.4 1.4h4.2c1 0 1.4-.4 1.4-1.4V24.7c0-3.4-.8-6.1-2.6-7.9-1.5-1.8-3.9-2.8-7.4-2.8-4.7 0-9.5 1.6-14.2 5.1-1.6-3.5-4.6-5.1-9-5.1s-8.9 1.6-13.3 4.7l-.4-2.2c0-.6-.2-.8-.6-1-.2-.2-.6-.2-1-.2H3.1c-1 0-1.4.4-1.4 1.4v33.6c-.2.9.3 1.3 1.3 1.3zM159.7 78.3c-22 9.3-46.1 14-67.9 14-32.4 0-63.7-8.9-89-23.7-.4-.2-.8-.4-1.2-.4-1.4 0-2.2 1.6-.8 3 23.5 21.2 54.6 34 89 34 24.7 0 53.2-7.7 72.8-22.2 3.3-2.5.5-6.2-2.9-4.7z"/><path class="st0" d="M147.7 72.8c6.3-.8 20.4-2.4 23.1.8 2.4 3.2-2.8 16.6-5.3 22.4-.6 1.8.8 2.4 2.6 1.2 10.5-8.9 13.3-27.3 11.1-30.1-1-1.2-5.9-2.4-11.9-2.4-6.5 0-14.2 1.4-20 5.5-1.8 1.2-1.4 2.8.4 2.6z"/></svg>