<svg xmlns="http://www.w3.org/2000/svg" width="187.5" height="187.5"><style></style><g id="layer1_1_" transform="translate(-284.199 -143.226)"><g id="g1233_1_"><linearGradient id="path1093_2_" gradientUnits="userSpaceOnUse" x1="666.573" y1="529.512" x2="704.2" y2="480.675" gradientTransform="matrix(2.8346 0 0 -2.8346 -1564.287 1669.507)"><stop offset="0" stop-color="#ff5e50"/><stop offset=".249" stop-color="#fe5c6c"/><stop offset=".377" stop-color="#e3658a"/><stop offset=".497" stop-color="#b87eb0"/><stop offset=".627" stop-color="#916cff"/><stop offset=".763" stop-color="#70bcfb" stop-opacity=".919"/><stop offset="1" stop-color="#21c7fe"/></linearGradient><circle id="path1093_1_" cx="377.9" cy="237" r="93.7" fill="url(#path1093_2_)"/><path id="circle1107_1_" d="M378.7 160.7c-42.4 0-76.9 34.4-76.9 76.9 0 42.4 34.4 76.9 76.9 76.9 42.4 0 76.9-34.4 76.9-76.9-.1-42.5-34.5-76.9-76.9-76.9zm38.5 15.3c1.8 0 3.2 1 3.7 2.8.2.6.2 12 .2 45.4l-.1 44.6-.5 1.7c-1.6 5.7-5.5 9.7-11 11.3-3.9 1.2-9.6 1.6-12.4.9-2.5-.6-4.3-1.6-6.3-3.6-2.9-2.9-4.1-5.8-4.1-9.6 0-2.1.4-3.7 1.4-5.8 1.4-3 3.2-4.8 6.5-6.4 2.6-1.3 5-2 11.9-3.4 4.5-.9 5.6-1.4 6.5-2.4 1.2-1.4 1.2-.9 1.1-23.7-.1-19.8-.1-20.9-.4-21.5-.5-.8-1.7-1.2-2.8-1.1-1.3.2-45.8 9.2-46.9 9.5-1.2.3-2.1 1.3-2.4 2.7-.2.8-.2 9.5-.2 31.1 0 33.1 0 32.3-1.3 35.9-.4 1-1.1 2.4-1.5 3.1-1.1 1.7-3.3 3.8-5 4.9-4.1 2.4-12 3.6-16.3 2.5-4.5-1.2-7.8-4.2-9.3-8.6-.7-2.1-.9-5.5-.4-7.8.5-2.4 1.8-4.6 3.4-6.3 2.9-2.9 6.4-4.3 15.6-6.2 2-.4 4.1-.9 4.6-1.1 1.1-.4 2.3-1.5 2.8-2.7.4-.8.4-2.7.5-35.8l.1-34.9.5-1c.6-1.2 1.8-2.3 3-2.7.8-.3 47-9.7 54.9-11.2 1.7-.4 3.6-.6 4.2-.6z" opacity=".192"/><path id="circle1095_1_" d="M377.9 151.1c-47.4 0-85.9 38.4-85.9 85.9s38.4 85.9 85.9 85.9 85.9-38.4 85.9-85.9-38.4-85.9-85.9-85.9zm38.6 24.3c1.8 0 3.2 1 3.7 2.8.2.6.2 12 .2 45.4l-.1 44.6-.5 1.7c-1.6 5.7-5.5 9.7-11 11.3-3.9 1.2-9.6 1.6-12.4.9-2.5-.6-4.3-1.6-6.3-3.6-2.9-2.9-4.1-5.8-4.1-9.6 0-2.1.4-3.7 1.4-5.8 1.4-3 3.2-4.8 6.5-6.4 2.6-1.3 5-2 11.9-3.4 4.5-.9 5.6-1.4 6.5-2.4 1.2-1.4 1.2-.9 1.1-23.7-.1-19.8-.1-20.9-.4-21.5-.5-.8-1.7-1.2-2.8-1.1-1.3.2-45.8 9.2-46.9 9.5-1.2.3-2.1 1.3-2.4 2.7-.2.8-.2 9.5-.2 31.1 0 33.1 0 32.3-1.3 35.9-.4 1-1.1 2.4-1.5 3.1-1.1 1.7-3.3 3.8-5 4.9-4.1 2.4-12 3.6-16.3 2.5-4.5-1.2-7.8-4.2-9.3-8.6-.7-2.1-.9-5.5-.4-7.8.5-2.4 1.8-4.6 3.4-6.3 2.9-2.9 6.4-4.3 15.6-6.2 2-.4 4.1-.9 4.6-1.1 1.1-.4 2.3-1.5 2.8-2.7.4-.8.4-2.7.5-35.8l.1-34.9.5-1c.6-1.2 1.8-2.3 3-2.7.8-.3 47-9.7 54.9-11.2 1.7-.4 3.6-.6 4.2-.6z" fill="#fff"/></g></g></svg>