<svg xmlns="http://www.w3.org/2000/svg" width="279" height="192"><path d="M3.8 88.8s6.3-1 8.9 1.7c2.6 2.7.9 8.3-2.6 8.4-3.4.1-6.6.7-8.9-1.7C-1 94.8-.4 90 3.8 88.8m68.4 38.3c-.6.1-1.2-.2-1.9-.7-4.5-6.3-6.1-27.8-8.2-29.1-2.1-1.3-9.9 11.9-25.4 10.5-6.5-.6-13.1-4.8-16.9-7.7.4-4.9.4-16.3 10.1-12.6 5.9 2.3 15.9 8.4 24.7-2.7 9.7-12.3 15.1-8.7 18.3-6.1 3.2 2.7 1.1 16.6 5.9 12.7 4.8-3.9 24.2-28 24.2-28s15-15.1 17.3.8c2.3 15.9 12.1 33.6 14.7 33.1 2.6-.5 32.8-61.9 37.1-65.9 4.3-4 18.9-3.4 18.2 6.7-.7 10.2-2.2 73.3-2.2 73.3s-1.7 17.8 1.1 8.3c1.2-3.9 2.4-7.5 3.9-11.7 7.5-23.9 20.2-64.7 26.5-85.7 1.5-5 2.7-9.3 3.7-12.7.4-1.5.8-2.8 1.1-3.8.5-1.8.9-3 1-3.3.3-.8 1.1-1.4 2.2-1.8 1.1-.7 2.3-.7 3.7-.8 3.5-.3 8 .1 12.1 1.3 1.2 0 2.5.4 3.7 1.3 0 0 .1 0 .2.1 0 0 .1 0 .1.1.3.2.7.5 1.1 1.1v.1c.2.2.4.5.6.9 2.3 3.3 3.7 9.5 2.3 20.3-3.5 27.1-6.2 83-6.2 83s-.5 2.7 5.1-9.1c.2-.4.4-.8.7-1.1.3-.2.6-.5 1.1-1 3.5-4.1 12.7-6.5 19.2-6.5 2.7.3 5 1 6.3 1.9 2.5 3.9 1 18.2 1 18.2-5.4.5-15.6 3.4-19.2 3.9-3.6.5-9.1 24.1-16.8 21.7-7.7-2.4-24.7-13.1-24.7-14.6 0-1.3 1.3-16.9 1.7-20.9 0-.3 0-.5.1-.8v-.2c.2-3.2 0-4.6-1.4-1.4-1.3 2.7-6.8 20.2-12.9 39.2-.6 1.7-12.2 36.7-13.7 41-1.8 5-3.3 8.7-4.4 10.7-1.6 2.2-3.8 3.5-6.8 2.6-7.5-2.3-17-12.7-17.1-15.2-.2-14.5.7-92.7-2.8-86.2-3.6 6.7-31.7 53-31.7 53-.5.1-.8.1-1.2.1-2-.2-5.1-.9-5.9-2.8 0-.1-.1-.2-.1-.3 0-.1-.1-.3-.2-.5-.4-1.3-.5-2.7-.9-3.8-1.3-4.2-3.3-10.3-5.4-16.5-3.2-10.6-6.6-21.4-7.1-22.5-1.1-2.3-2.6-1.3-4 0-6.5 5.3-19.8 28.8-31.9 30.1" fill-rule="evenodd" clip-rule="evenodd" fill="#fff"/></svg>