<svg xmlns="http://www.w3.org/2000/svg" width="104.4" height="64.8"><style>.st0{fill:#a8e00f}</style><path class="st0" d="M90.1 37.9C90.1 17 73.1 0 52.2 0S14.3 17 14.3 37.9c0 9.7 3.6 18.9 10.3 25.9.9.9 2.4 1 3.3.1l4.1-3.8c.9-.9 1-2.4.1-3.3-4.8-5.1-7.5-11.8-7.5-18.9 0-15.2 12.4-27.6 27.6-27.6 15.2 0 27.6 12.4 27.6 27.6 0 7-2.7 13.7-7.5 18.9-.9.9-.8 2.4.1 3.3l4.1 3.8c.9.9 2.4.8 3.3-.1 6.7-7 10.3-16.2 10.3-25.9"/><path class="st0" d="M104.4 37.7c0-5.2-.8-10.3-2.3-15.1-.4-1.2-1.7-1.9-2.9-1.5l-5.4 1.7c-1.2.4-1.9 1.7-1.5 2.9 1.2 3.9 1.8 8 1.8 12.1 0 7.3-2 14.4-5.7 20.7-.7 1.1-.3 2.5.8 3.2l4.8 2.9c1.1.7 2.5.3 3.2-.8 4.7-8 7.2-16.9 7.2-26.1M16 58.4c-3.7-6.2-5.7-13.4-5.7-20.7 0-4.1.6-8.2 1.8-12.1.4-1.2-.3-2.5-1.5-2.9L5.3 21c-1.2-.4-2.5.3-2.9 1.5C.8 27.4 0 32.5 0 37.7c0 9.1 2.5 18.1 7.2 26 .7 1.1 2.1 1.5 3.2.8l4.8-2.9c1.1-.7 1.5-2.1.8-3.2z"/></svg>