<svg xmlns="http://www.w3.org/2000/svg" width="114.8" height="75"><style></style><path d="M114.8 0H90v14.5h24.8V0z" fill="#29ab70"/><linearGradient id="SVGID_1_" gradientUnits="userSpaceOnUse" x1="104.04" y1="38.273" x2="100.81" y2="56.576" gradientTransform="matrix(1 0 0 -1 0 74.85)"><stop offset="0" stop-color="#2c8c9d"/><stop offset=".04" stop-color="#298e9a"/><stop offset=".39" stop-color="#129c83"/><stop offset=".72" stop-color="#05a475"/><stop offset="1" stop-color="#00a770"/></linearGradient><path d="M114.8 20.2H90v14.5h24.8V20.2z" fill="url(#SVGID_1_)"/><linearGradient id="SVGID_2_" gradientUnits="userSpaceOnUse" x1="89.638" y1="20.739" x2="115.212" y2="33.771" gradientTransform="matrix(1 0 0 -1 0 74.85)"><stop offset="0" stop-color="#2839ba"/><stop offset="1" stop-color="#148cb3"/></linearGradient><path d="M114.8 40.3H90v14.5h24.8V40.3z" fill="url(#SVGID_2_)"/><linearGradient id="SVGID_3_" gradientUnits="userSpaceOnUse" x1="0" y1="7.075" x2="24.83" y2="7.075" gradientTransform="matrix(1 0 0 -1 0 74.85)"><stop offset="0" stop-color="#f6a500"/><stop offset="1" stop-color="#f29100"/></linearGradient><path d="M24.8 60.5H0V75h24.8V60.5z" fill="url(#SVGID_3_)"/><linearGradient id="SVGID_4_" gradientUnits="userSpaceOnUse" x1="30" y1="7.075" x2="54.83" y2="7.075" gradientTransform="matrix(1 0 0 -1 0 74.85)"><stop offset="0" stop-color="#f29100"/><stop offset="1" stop-color="#d12f5f"/></linearGradient><path d="M54.8 60.5H30V75h24.8V60.5z" fill="url(#SVGID_4_)"/><linearGradient id="SVGID_5_" gradientUnits="userSpaceOnUse" x1="60.01" y1="7.075" x2="84.84" y2="7.075" gradientTransform="matrix(1 0 0 -1 0 74.85)"><stop offset="0" stop-color="#b4197c"/><stop offset="1" stop-color="#472ead"/></linearGradient><path d="M84.8 60.5H60V75h24.8V60.5z" fill="url(#SVGID_5_)"/><linearGradient id="SVGID_6_" gradientUnits="userSpaceOnUse" x1="90.01" y1="7.075" x2="114.84" y2="7.075" gradientTransform="matrix(1 0 0 -1 0 74.85)"><stop offset="0" stop-color="#2839ba"/><stop offset="1" stop-color="#3072b7"/></linearGradient><path d="M114.8 60.5H90V75h24.8V60.5z" fill="url(#SVGID_6_)"/><linearGradient id="SVGID_7_" gradientUnits="userSpaceOnUse" x1="59.036" y1="23.34" x2="85.814" y2="31.169" gradientTransform="matrix(1 0 0 -1 0 74.85)"><stop offset="0" stop-color="#b4197c"/><stop offset="1" stop-color="#373aac"/></linearGradient><path d="M84.8 40.3H60v14.5h24.8V40.3z" fill="url(#SVGID_7_)"/><linearGradient id="SVGID_8_" gradientUnits="userSpaceOnUse" x1="29.123" y1="32.09" x2="55.707" y2="22.419" gradientTransform="matrix(1 0 0 -1 0 74.85)"><stop offset="0" stop-color="#ffcb00"/><stop offset="1" stop-color="#d12f5f"/></linearGradient><path d="M54.8 40.3H30v14.5h24.8V40.3z" fill="url(#SVGID_8_)"/><linearGradient id="SVGID_9_" gradientUnits="userSpaceOnUse" x1="32.1" y1="56.945" x2="52.73" y2="37.905" gradientTransform="matrix(1 0 0 -1 0 74.85)"><stop offset="0" stop-color="#ffcf00"/><stop offset="1" stop-color="#ed743b"/></linearGradient><path d="M54.8 20.2H30v14.5h24.8V20.2z" fill="url(#SVGID_9_)"/></svg>