<svg xmlns="http://www.w3.org/2000/svg" width="349.9" height="389.8" overflow="scroll"><style></style><g id="XMLID_5_"><path id="XMLID_20_" d="M334 173.1L38.5 5.2c-12.6-7.1-23.9-6.4-30.7.2C2.9 10.1.3 17.6.3 27.3v335.1c0 9.7 2.9 17.3 7.5 21.9 7.1 6.9 18.2 7.5 30.8.2L334 216.7c21.2-12 21.2-31.5 0-43.6z" fill="#f4481e"/><linearGradient id="XMLID_21_" gradientUnits="userSpaceOnUse" x1="175.063" y1="2.843" x2="175.063" y2="392.009" gradientTransform="matrix(1 0 0 -1 0 391.976)"><stop offset="0" stop-color="#fff" stop-opacity="0"/><stop offset="1" stop-color="#fff" stop-opacity=".1"/></linearGradient><path id="XMLID_19_" d="M334 173.1L38.5 5.2c-12.6-7.1-23.9-6.4-30.7.2C2.9 10.1.3 17.6.3 27.3v335.1c0 9.7 2.9 17.3 7.5 21.9 7.1 6.9 18.2 7.5 30.8.2L334 216.7c21.2-12 21.2-31.5 0-43.6z" fill="url(#XMLID_21_)"/><path id="XMLID_18_" d="M334 175.3L38.5 7.4C17.3-4.5 0 5.4 0 29.6v-2.2C0 3 17.3-7 38.5 5.2L334 173.1c11.1 6.2 16.4 14.6 15.7 23-.5-7.5-5.6-15.1-15.7-20.8z" opacity=".1" fill="#fff"/><path id="XMLID_17_" d="M304.7 233.5c3.5-12.2 5.3-25.2 5.3-38.5 0-78.2-63.6-141.7-141.7-141.7S26.6 116.8 26.6 195c0 65.6 44.5 120.7 105 136.9l173.1-98.4z" fill="#ffd119"/><circle id="XMLID_16_" cx="168.3" cy="195" r="88.6" fill="#ff8c00"/><linearGradient id="XMLID_22_" gradientUnits="userSpaceOnUse" x1="186.708" y1="165.086" x2="219.759" y2="107.839" gradientTransform="matrix(1 0 0 -1 0 391.976)"><stop offset="0" stop-color="#991700" stop-opacity="0"/><stop offset="1" stop-color="#991700" stop-opacity=".1"/></linearGradient><path id="XMLID_15_" d="M168.3 53.3C90.1 53.3 26.6 116.8 26.6 195c0 65.6 44.5 120.7 105 136.9l173.2-98.3c3.5-12.2 5.3-25.2 5.3-38.5-.1-78.3-63.6-141.8-141.8-141.8z" fill="url(#XMLID_22_)"/><g id="XMLID_13_"><path id="XMLID_14_" d="M168.3 148.5V203c-3.1-1.8-6.6-2.9-10.4-2.9-11.5 0-20.6 9.3-20.6 20.6 0 11.5 9.3 20.6 20.6 20.6 11.5 0 21.5-9.3 21.5-20.6v-50h19.9v-22.1h-31z" fill="#fafafa"/></g><path id="XMLID_12_" d="M168.3 55.5c78 0 141.3 62.9 141.7 140.8V195c0-78.2-63.6-141.7-141.7-141.7S26.6 116.8 26.6 195v1.1c.6-77.7 63.8-140.6 141.7-140.6z" opacity=".3" fill="#fff"/></g></svg>