<svg xmlns="http://www.w3.org/2000/svg" width="153.9" height="79.5"><path d="M132.6 34.7c-2.6 0-5.2.6-7.5 1.7C123.6 17.1 109 2 91.1 2c-4.4 0-8.6.9-12.4 2.6-1.5.6-1.8 1.3-1.8 2.5V75c0 1.3.9 2.4 2.1 2.5h53.6c10.7 0 19.3-9.6 19.3-21.4 0-11.8-8.6-21.4-19.3-21.4zM62.9 77.5h0c1.3 0 2.4-1 2.5-2.3l2.2-35.3v-.3L65.4 4.3C65.3 3 64.2 2 62.9 2h0c-1.3 0-2.4 1-2.5 2.3l-2.2 35.2v.3l2.2 35.3c.1 1.4 1.2 2.4 2.5 2.4zm-18.7 0h-.1c-1.3 0-2.4-1-2.5-2.3l-2.1-24.9v-.4l2.1-24c.1-1.3 1.2-2.3 2.5-2.3h.1c1.3 0 2.4 1 2.5 2.3l2.1 24.5v.4l-2.1 24.5c-.1 1.2-1.2 2.2-2.5 2.2zm-18.9 0h.2c1.3 0 2.3-1 2.5-2.2l2-19.1v-.5l-2-19.1c-.1-1.3-1.2-2.2-2.5-2.2h-.2c-1.3 0-2.3 1-2.5 2.2l-2.1 19.1v.5l2.1 19.1c.1 1.2 1.2 2.2 2.5 2.2zm-19-10.8H7c1.2 0 2.2-.8 2.4-2l1.8-8.3c.1-.3.1-.7 0-1.1L9.4 47c-.2-1.1-1.3-2-2.4-2h-.7c-1.2 0-2.2.8-2.4 2l-1.8 8.3c-.1.3-.1.7 0 1.1l1.8 8.3c.2 1.2 1.2 2 2.4 2z" fill="#fff" stroke="#fff" stroke-width="4" stroke-miterlimit="10"/></svg>