<svg xmlns="http://www.w3.org/2000/svg" width="100" height="100"><path d="M50 0C22.39 0 0 22.39 0 50s22.39 50 50 50 50-22.39 50-50S77.61 0 50 0zm21.88 73.06c-1.04.62-2.39.62-3.32 0-4.15-2.49-8.61-4.25-13.28-5.4-1.24-.31-2.49-.52-3.74-.73-1.45-.21-2.91-.41-4.36-.52-1.45-.21-2.9-.1-4.46-.21-1.87 0-3.74.1-5.6.21-3.84.31-7.57.83-11.31 1.66-1.04.21-2.08.52-3.11.1-1.35-.52-2.18-2.08-1.87-3.53.21-1.14 1.25-2.08 2.39-2.28 3.11-.73 6.12-1.24 9.23-1.66 2.18-.31 4.36-.42 6.43-.52 2.08 0 4.25-.1 6.33 0 9.23.31 18.47 2.9 26.46 7.78.62.42 1.14.93 1.35 1.66.63 1.16 0 2.82-1.14 3.44zm4.88-12.86c-1.04.31-2.18.1-3.01-.42-6.23-3.84-13.28-6.02-20.44-7.26-1.87-.31-3.84-.52-5.71-.73-5.81-.52-11.72-.31-17.43.73-2.08.41-4.15.83-6.23 1.45-1.97.62-4.36-.62-4.88-2.7-.52-1.56.31-3.42 1.66-4.36.62-.42 1.35-.52 2.08-.73 3.11-.83 6.23-1.45 9.34-1.87 4.15-.52 8.4-.73 12.66-.52 11.41.52 22.93 3.32 32.79 9.34 1.24.73 2.18 2.08 2.08 3.53-.11 1.56-1.35 3.12-2.91 3.54zm3.01-15.77c-7.26-4.25-15.46-6.54-23.66-7.68-2.49-.41-4.98-.62-7.57-.83-4.67-.21-9.44-.21-14.11.21-1.56.21-3.11.31-4.67.52-2.7.42-5.4.93-7.99 1.76-1.24.41-2.59.41-3.74-.1-1.66-.73-2.7-2.49-2.59-4.36 0-1.97 1.45-3.73 3.32-4.25 3.74-1.14 7.47-1.87 11.31-2.39 1.87-.31 3.84-.42 5.71-.52 1.24-.21 2.59-.1 3.84-.21 3.22-.1 6.43 0 9.65.21 4.67.31 9.44.93 14.01 1.87 6.64 1.35 13.28 3.53 19.19 6.74 1.04.62 2.18 1.04 2.91 1.97 1.35 1.35 1.56 3.42.73 4.98-1.05 2.28-4.16 3.32-6.34 2.08z" fill="#fff"/></svg>