<svg xmlns="http://www.w3.org/2000/svg" width="97.2" height="64.8"><style>.st0{fill:#fffefe;stroke:#010101;stroke-width:2.357735e-002}</style><path class="st0" d="M16.1 0h.2c1.5 1.8 3.3 3.3 4.9 5l11.1 11.1v.2c-5.4 5.4-10.7 10.8-16.1 16.1C10.8 27.1 5.4 21.7 0 16.3c.3-.5.8-.9 1.2-1.3 5-5 10-10 14.9-15zM48.5 0h.2c.2.2.3.4.5.6C54.4 5.8 59.6 11 64.8 16.1c-.1.3-.4.5-.6.7-5.2 5.3-10.4 10.5-15.6 15.6-5.4-5.4-10.8-10.8-16.2-16.1C37.7 10.8 43.2 5.5 48.5 0zM81 0h.2c1 1.2 2.2 2.2 3.3 3.4l12.2 12.2c.2.2.5.4.6.8-5.5 5.2-10.8 10.7-16.3 16-5.2-5.1-10.3-10.3-15.5-15.4-.3-.3-.6-.5-.7-.8l8.1-8.1C75.6 5.4 78.3 2.8 81 0zM32.6 48.4l15.9-15.9.2.1c5.3 5.4 10.7 10.7 16 16-.2.4-.6.6-.8 1-3.9 3.8-7.7 7.7-11.6 11.6-1.3 1.2-2.5 2.6-3.7 3.7-1.8-1.7-3.5-3.5-5.3-5.2-3.6-3.6-7.2-7.2-10.9-10.8.1-.3.2-.4.2-.5z"/></svg>